<?xml version="1.0" standalone="no"?>
<!DOCTYPE svg PUBLIC "-//W3C//DTD SVG 20010904//EN"
 "http://www.w3.org/TR/2001/REC-SVG-20010904/DTD/svg10.dtd">
<svg version="1.0" xmlns="http://www.w3.org/2000/svg"
 width="512.000000pt" height="512.000000pt" viewBox="0 0 512.000000 512.000000"
 preserveAspectRatio="xMidYMid meet">

<g transform="translate(0.000000,512.000000) scale(0.100000,-0.100000)"
fill="#000000" stroke="none">
<path d="M1865 5114 c-431 -36 -828 -198 -1156 -473 -362 -303 -606 -741 -685
-1232 -23 -142 -23 -456 0 -598 70 -439 263 -821 564 -1119 302 -299 651 -480
1077 -559 140 -25 538 -25 670 1 343 67 618 186 880 380 l60 45 162 -162 163
-162 -47 -47 -48 -48 570 -570 570 -570 237 237 238 238 -570 570 -570 570
-48 -48 -47 -47 -163 163 -163 163 52 68 c186 247 315 544 375 871 27 140 27
536 1 675 -79 420 -256 763 -548 1061 -120 122 -212 197 -348 283 -242 152
-502 249 -782 291 -105 16 -352 26 -444 19z m366 -279 c278 -37 524 -129 750
-281 680 -457 944 -1317 640 -2084 -87 -218 -198 -387 -370 -564 -299 -306
-643 -473 -1076 -523 -299 -35 -631 23 -914 158 -468 223 -811 641 -935 1137
-43 171 -51 240 -51 432 0 193 8 261 52 435 209 841 1042 1405 1904 1290z"/>
<path d="M1450 4254 c-101 -44 -160 -157 -160 -309 0 -145 51 -275 144 -366
65 -63 124 -91 196 -91 221 0 324 307 192 571 -82 164 -246 250 -372 195z"/>
<path d="M2355 4246 c-199 -101 -298 -400 -202 -608 102 -224 369 -191 496 61
82 161 79 351 -5 473 -45 64 -95 92 -173 96 -55 3 -74 -1 -116 -22z"/>
<path d="M870 3609 c-35 -14 -79 -58 -100 -100 -105 -204 105 -549 334 -549
152 0 239 155 192 340 -30 118 -124 240 -223 290 -54 27 -160 37 -203 19z"/>
<path d="M2954 3604 c-64 -23 -152 -101 -196 -174 -50 -83 -68 -146 -68 -235
0 -91 33 -164 93 -203 57 -38 159 -39 231 -2 77 39 147 114 192 204 34 70 39
90 43 164 5 125 -30 202 -110 242 -45 24 -125 25 -185 4z"/>
<path d="M1940 3319 c-235 -33 -543 -295 -677 -575 -69 -146 -87 -225 -87
-389 -1 -131 1 -143 25 -190 50 -99 124 -106 358 -35 241 73 293 84 436 84
142 0 217 -14 460 -90 91 -28 139 -37 197 -38 72 -1 78 1 108 29 44 42 63 117
63 245 -1 296 -165 597 -435 801 -165 123 -315 176 -448 158z"/>
</g>
</svg>
